{"title":"The Legend of the Legendary Heroes","uid":6306901,"size":4503470456,"categoryP":"video","categoryS":"tv_shows","magnet":"?xt=urn:btih:6b299a058c3cba3dbb52992eb0093a564625108e&amp;dn=The+Legend+of+the+Legendary+Heroes&amp;tr=udp%3A%2F%2Ftracker.openbittorrent.com%3A80&amp;tr=udp%3A%2F%2Fopen.demonii.com%3A1337&amp;tr=udp%3A%2F%2Ftracker.coppersurfer.tk%3A6969&amp;tr=udp%3A%2F%2Fexodus.desync.com%3A6969","seeders":1,"leechers":0,"uploader":"cable.guy","files":25,"time":1302369417,"description":" &lt;a href=&quot;http://myanimelist.net/anime/8086/Densetsu_no_Yuusha_no_Densetsu&quot; rel=&quot;nofollow&quot; target=&quot;_NEW&quot;&gt;http://myanimelist.net/anime/8086/Densetsu_no_Yuusha_no_Densetsu&lt;/a&gt;\n\nRyner Lute is a lazy student of the Roland Empire Royal Magician's Academy. One day, the Roland Empire goes to war against their neighboring country Estabul, and Ryner loses his classmates in the war. After the war, Ryner sets out on a journey to search the relics of a &quot;Legendary Hero&quot; at King Sion Astal's command and finds out that a deadly curse is spreading throughout the continent.\n\nawsome anime, a must watch!!!\n\n\ninfo of most of the files:\nGeneral\n\nFormat                           : Matroska\nFile size                        : 177 MiB\nDuration                         : 23mn 50s\nOverall bit rate                 : 1 040 Kbps\nEncoded date                     : UTC 2010-07-23 18:29:23\nWriting application              : mkvmerge v4.0.0 ('The Stars were mine') built on Jun  6 2010 16:18:42\nWriting library                  : libebml v1.0.0 + libmatroska v1.0.0\n\nVideo\nID                               : 1\nFormat                           : VP6F\nCodec ID                         : VP6F\nDuration                         : 24mn 4s\nBit rate                         : 891 Kbps\nWidth                            : 640 pixels\nHeight                           : 368 pixels\nDisplay aspect ratio             : 16:9\nFrame rate                       : 30.303 fps\nResolution                       : 24 bits\nBits/(Pixel*Frame)               : 0.125\nStream size                      : 153 MiB (87%)\n\nAudio\nID                               : 2\nFormat                           : MPEG Audio\nFormat version                   : Version 1\nFormat profile                   : Layer 3\nCodec ID                         : A_MPEG/L3\nCodec ID/Hint                    : MP3\nDuration                         : 23mn 50s\nBit rate mode                    : Constant\nBit rate                         : 128 Kbps\nChannel(s)                       : 2 channels\nSampling rate                    : 44.1 KHz\nResolution                       : 16 bits\nStream size                      : 21.8 MiB (12%)\n\n\n","torrent":{"xt":"urn:btih:6b299a058c3cba3dbb52992eb0093a564625108e","amp;dn":"The+Legend+of+the+Legendary+Heroes","amp;tr":["udp%3A%2F%2Ftracker.openbittorrent.com%3A80","udp%3A%2F%2Fopen.demonii.com%3A1337","udp%3A%2F%2Ftracker.coppersurfer.tk%3A6969","udp%3A%2F%2Fexodus.desync.com%3A6969"],"infoHash":"6b299a058c3cba3dbb52992eb0093a564625108e","infoHashBuffer":{"type":"Buffer","data":[107,41,154,5,140,60,186,61,187,82,153,46,176,9,58,86,70,37,16,142]},"announce":[],"urlList":[]}}